<mxfile host="app.diagrams.net" agent="Mozilla/5.0 (Windows NT 10.0; Win64; x64) AppleWebKit/537.36 (KHTML, like Gecko) Chrome/127.0.0.0 Safari/537.36 OPR/113.0.0.0" version="24.7.17">
  <diagram id="C5RBs43oDa-KdzZeNtuy" name="Page-1">
    <mxGraphModel dx="1009" dy="557" grid="1" gridSize="10" guides="1" tooltips="1" connect="1" arrows="1" fold="1" page="1" pageScale="1" pageWidth="827" pageHeight="1169" math="0" shadow="0">
      <root>
        <mxCell id="WIyWlLk6GJQsqaUBKTNV-0" />
        <mxCell id="WIyWlLk6GJQsqaUBKTNV-1" parent="WIyWlLk6GJQsqaUBKTNV-0" />
        <mxCell id="jCs8LUAT04jhk3t9bFm8-2" value="" style="edgeStyle=orthogonalEdgeStyle;rounded=0;orthogonalLoop=1;jettySize=auto;html=1;" edge="1" parent="WIyWlLk6GJQsqaUBKTNV-1" source="jCs8LUAT04jhk3t9bFm8-0" target="jCs8LUAT04jhk3t9bFm8-1">
          <mxGeometry relative="1" as="geometry" />
        </mxCell>
        <mxCell id="jCs8LUAT04jhk3t9bFm8-0" value="Початок" style="ellipse;whiteSpace=wrap;html=1;" vertex="1" parent="WIyWlLk6GJQsqaUBKTNV-1">
          <mxGeometry x="200" y="80" width="120" height="80" as="geometry" />
        </mxCell>
        <mxCell id="jCs8LUAT04jhk3t9bFm8-4" value="" style="edgeStyle=orthogonalEdgeStyle;rounded=0;orthogonalLoop=1;jettySize=auto;html=1;" edge="1" parent="WIyWlLk6GJQsqaUBKTNV-1" source="jCs8LUAT04jhk3t9bFm8-1" target="jCs8LUAT04jhk3t9bFm8-3">
          <mxGeometry relative="1" as="geometry" />
        </mxCell>
        <mxCell id="jCs8LUAT04jhk3t9bFm8-1" value="a, b" style="shape=internalStorage;whiteSpace=wrap;html=1;backgroundOutline=1;" vertex="1" parent="WIyWlLk6GJQsqaUBKTNV-1">
          <mxGeometry x="220" y="200" width="80" height="80" as="geometry" />
        </mxCell>
        <mxCell id="jCs8LUAT04jhk3t9bFm8-7" value="" style="edgeStyle=orthogonalEdgeStyle;rounded=0;orthogonalLoop=1;jettySize=auto;html=1;" edge="1" parent="WIyWlLk6GJQsqaUBKTNV-1" source="jCs8LUAT04jhk3t9bFm8-3" target="jCs8LUAT04jhk3t9bFm8-6">
          <mxGeometry relative="1" as="geometry" />
        </mxCell>
        <mxCell id="jCs8LUAT04jhk3t9bFm8-3" value="Input: a, b" style="shape=parallelogram;perimeter=parallelogramPerimeter;whiteSpace=wrap;html=1;fixedSize=1;" vertex="1" parent="WIyWlLk6GJQsqaUBKTNV-1">
          <mxGeometry x="200" y="320" width="120" height="60" as="geometry" />
        </mxCell>
        <mxCell id="jCs8LUAT04jhk3t9bFm8-11" value="" style="edgeStyle=orthogonalEdgeStyle;rounded=0;orthogonalLoop=1;jettySize=auto;html=1;" edge="1" parent="WIyWlLk6GJQsqaUBKTNV-1" source="jCs8LUAT04jhk3t9bFm8-6" target="jCs8LUAT04jhk3t9bFm8-8">
          <mxGeometry relative="1" as="geometry" />
        </mxCell>
        <mxCell id="jCs8LUAT04jhk3t9bFm8-6" value="a+b" style="rounded=1;whiteSpace=wrap;html=1;" vertex="1" parent="WIyWlLk6GJQsqaUBKTNV-1">
          <mxGeometry x="200" y="420" width="120" height="60" as="geometry" />
        </mxCell>
        <mxCell id="jCs8LUAT04jhk3t9bFm8-12" value="" style="edgeStyle=orthogonalEdgeStyle;rounded=0;orthogonalLoop=1;jettySize=auto;html=1;" edge="1" parent="WIyWlLk6GJQsqaUBKTNV-1" source="jCs8LUAT04jhk3t9bFm8-8" target="jCs8LUAT04jhk3t9bFm8-10">
          <mxGeometry relative="1" as="geometry" />
        </mxCell>
        <mxCell id="jCs8LUAT04jhk3t9bFm8-8" value="Output: a+b" style="shape=parallelogram;perimeter=parallelogramPerimeter;whiteSpace=wrap;html=1;fixedSize=1;" vertex="1" parent="WIyWlLk6GJQsqaUBKTNV-1">
          <mxGeometry x="200" y="524.5" width="120" height="60" as="geometry" />
        </mxCell>
        <mxCell id="jCs8LUAT04jhk3t9bFm8-10" value="Кінець" style="ellipse;whiteSpace=wrap;html=1;" vertex="1" parent="WIyWlLk6GJQsqaUBKTNV-1">
          <mxGeometry x="200" y="630" width="120" height="80" as="geometry" />
        </mxCell>
      </root>
    </mxGraphModel>
  </diagram>
</mxfile>
